<?xml version="1.0" standalone="no"?>
<!DOCTYPE svg PUBLIC "-//W3C//DTD SVG 20010904//EN"
 "http://www.w3.org/TR/2001/REC-SVG-20010904/DTD/svg10.dtd">
<svg version="1.0" xmlns="http://www.w3.org/2000/svg"
 width="500.000000pt" height="500.000000pt" viewBox="0 0 500.000000 500.000000"
 preserveAspectRatio="xMidYMid meet">
<metadata>
Created by potrace 1.14, written by Peter Selinger 2001-2017
</metadata>
<g transform="translate(0.000000,500.000000) scale(0.100000,-0.100000)"
fill="#000000" stroke="none">
<path d="M0 2500 l0 -2500 2500 0 2500 0 0 2500 0 2500 -2500 0 -2500 0 0
-2500z m2675 1906 c90 -110 311 -385 491 -611 715 -898 698 -875 683 -889 -8
-8 -72 -53 -143 -100 -124 -84 -130 -87 -146 -69 -10 10 -104 122 -211 248
-258 306 -838 983 -848 990 -5 2 -21 -12 -37 -33 -15 -20 -85 -107 -154 -192
-70 -85 -178 -222 -241 -304 l-114 -150 -150 -70 c-82 -39 -257 -124 -389
-189 -131 -65 -240 -116 -242 -114 -4 3 62 91 268 359 75 97 228 297 339 445
288 381 382 503 552 716 120 149 153 185 163 176 8 -6 88 -102 179 -213z
m-158 -1000 c-3 -8 -86 -137 -185 -288 -199 -303 -452 -706 -452 -719 0 -10
249 -318 274 -338 14 -11 22 -9 59 15 371 248 707 477 707 482 0 4 -73 29
-163 56 -245 74 -480 146 -495 151 -16 6 -3 24 103 141 41 44 83 92 94 105
l19 24 58 -22 c33 -12 169 -63 304 -113 135 -50 333 -123 440 -162 107 -39
196 -72 198 -73 2 -2 -122 -86 -275 -188 -291 -193 -678 -461 -946 -653 l-157
-113 -188 224 c-166 198 -188 222 -200 207 -52 -68 -202 -292 -202 -302 0 -6
19 -33 43 -59 23 -27 135 -153 248 -282 113 -129 215 -242 226 -252 19 -17 25
-12 209 165 105 101 271 259 370 352 98 93 224 215 279 272 79 81 182 164 500
401 549 410 663 493 679 493 4 0 6 -35 6 -78 l0 -78 -272 -299 c-150 -164
-274 -301 -276 -304 -1 -4 115 -40 258 -80 143 -40 267 -79 277 -86 21 -16
-23 -30 -397 -129 -340 -90 -954 -261 -1020 -284 -36 -12 -100 -53 -182 -115
-148 -112 -285 -205 -348 -237 -25 -12 -47 -24 -49 -26 -2 -2 12 -20 30 -42
62 -70 336 -387 362 -417 l26 -30 203 206 c287 291 810 751 831 730 14 -14
-79 -131 -605 -759 -284 -339 -408 -482 -418 -482 -4 0 -88 93 -187 208 -591
685 -914 1054 -920 1049 -2 -2 -49 -67 -106 -144 -56 -78 -158 -217 -227 -310
l-125 -170 -8 51 c-4 28 -7 128 -5 221 l3 170 81 130 c264 421 356 570 518
840 l181 301 95 80 c109 92 719 574 727 574 3 0 3 -6 0 -14z m1309 -1578 c28
-29 98 -107 155 -174 l104 -121 -3 -239 -3 -239 -32 35 c-18 20 -137 157 -265
304 l-234 268 28 32 c73 81 180 186 189 186 6 0 34 -24 61 -52z"/>
</g>
</svg>
